<?xml version="1.0" standalone="no"?>
<!DOCTYPE svg PUBLIC "-//W3C//DTD SVG 20010904//EN"
 "http://www.w3.org/TR/2001/REC-SVG-20010904/DTD/svg10.dtd">
<svg version="1.0" xmlns="http://www.w3.org/2000/svg"
 width="512.000000pt" height="512.000000pt" viewBox="0 0 512.000000 512.000000"
 preserveAspectRatio="xMidYMid meet">

<g transform="translate(0.000000,512.000000) scale(0.100000,-0.100000)"
fill="#000000" stroke="none">
<path d="M502 4729 c-51 -26 -109 -90 -123 -139 -7 -23 -9 -699 -7 -2052 l3
-2016 30 -43 c17 -24 50 -57 74 -74 l43 -30 1094 -3 1094 -2 -2 847 -3 848
-282 3 -283 2 0 330 0 330 285 0 285 0 0 294 c0 162 5 330 11 373 12 91 59
239 96 303 103 179 270 304 484 362 77 21 105 22 339 23 140 0 294 -4 343 -8
l87 -9 0 -298 0 -298 -243 -4 -243 -3 -59 -30 c-113 -58 -134 -136 -135 -487
l0 -218 330 0 330 0 -6 -37 c-3 -21 -22 -168 -43 -328 l-37 -290 -284 -5 -285
-5 -3 -848 -2 -847 604 2 604 3 43 30 c24 17 57 50 74 74 l30 43 0 2038 0
2038 -30 43 c-17 24 -50 57 -74 74 l-43 30 -2026 3 -2027 2 -43 -21z"/>
</g>
</svg>
