<?xml version="1.0" standalone="no"?>
<!DOCTYPE svg PUBLIC "-//W3C//DTD SVG 20010904//EN"
 "http://www.w3.org/TR/2001/REC-SVG-20010904/DTD/svg10.dtd">
<svg version="1.0" xmlns="http://www.w3.org/2000/svg"
 width="240.000000pt" height="240.000000pt" viewBox="0 0 240.000000 240.000000"
 preserveAspectRatio="xMidYMid meet">

<g transform="translate(0.000000,240.000000) scale(0.100000,-0.100000)"
fill="#000000" stroke="none">
<path d="M660 2370 c-193 -18 -325 -75 -440 -190 -119 -118 -171 -244 -190
-453 -12 -132 -12 -922 0 -1054 19 -209 71 -335 190 -453 118 -119 244 -171
453 -190 132 -12 922 -12 1054 0 128 11 209 32 299 76 126 62 235 180 289 313
53 130 57 171 62 683 5 493 -2 678 -33 793 -58 222 -230 393 -452 450 -35 9
-109 20 -165 25 -121 11 -945 11 -1067 0z m1145 -224 c195 -44 297 -147 342
-348 15 -63 17 -143 17 -598 0 -571 -2 -604 -58 -726 -32 -69 -111 -148 -180
-180 -122 -56 -155 -58 -726 -58 -455 0 -535 2 -598 17 -202 46 -304 147 -349
347 -15 66 -17 141 -17 600 0 459 2 534 17 600 54 237 187 340 467 361 58 4
310 6 560 4 369 -3 468 -6 525 -19z"/>
<path d="M1775 1960 c-72 -30 -106 -133 -66 -198 32 -51 77 -74 134 -69 134
12 174 196 56 259 -35 19 -90 23 -124 8z"/>
<path d="M1108 1800 c-232 -36 -424 -210 -494 -446 -23 -79 -23 -229 0 -308
34 -116 76 -186 161 -271 125 -125 254 -179 430 -178 84 0 113 5 185 30 253
87 413 310 413 573 0 204 -101 394 -270 506 -115 76 -290 115 -425 94z m264
-248 c79 -38 149 -110 186 -190 24 -50 27 -69 27 -162 0 -93 -3 -112 -27 -162
-37 -80 -107 -152 -187 -191 -61 -30 -72 -32 -171 -32 -92 0 -112 3 -160 26
-82 38 -154 109 -192 187 -31 62 -33 73 -33 172 0 93 3 112 26 161 46 98 130
175 232 211 40 14 74 18 143 15 79 -2 100 -7 156 -35z"/>
</g>
</svg>
