<?xml version="1.0" standalone="no"?>
<!DOCTYPE svg PUBLIC "-//W3C//DTD SVG 20010904//EN"
 "http://www.w3.org/TR/2001/REC-SVG-20010904/DTD/svg10.dtd">
<svg version="1.0" xmlns="http://www.w3.org/2000/svg"
 width="256.000000pt" height="256.000000pt" viewBox="0 0 256.000000 256.000000"
 preserveAspectRatio="xMidYMid meet">

<g transform="translate(0.000000,256.000000) scale(0.100000,-0.100000)"
fill="#000000" stroke="none">
<path d="M1509 2112 c-186 -62 -315 -265 -292 -461 l6 -54 -109 6 c-238 12
-418 101 -621 306 -50 50 -95 91 -100 91 -46 0 -69 -108 -60 -280 17 -317 191
-630 444 -797 29 -20 53 -39 53 -43 0 -17 -115 -112 -176 -146 -77 -43 -178
-79 -252 -89 -93 -12 -109 -62 -34 -103 65 -36 204 -81 306 -98 139 -24 389
-15 519 19 456 121 792 486 871 947 9 51 16 114 16 138 0 36 9 57 45 112 52
78 89 154 107 223 11 42 10 49 -5 64 -15 15 -23 16 -62 5 -102 -27 -146 -14
-256 77 -86 70 -148 95 -254 98 -67 2 -104 -2 -146 -15z"/>
</g>
</svg>
