<?xml version="1.0" standalone="no"?>
<!DOCTYPE svg PUBLIC "-//W3C//DTD SVG 20010904//EN"
 "http://www.w3.org/TR/2001/REC-SVG-20010904/DTD/svg10.dtd">
<svg version="1.0" xmlns="http://www.w3.org/2000/svg"
 width="256.000000pt" height="256.000000pt" viewBox="0 0 256.000000 256.000000"
 preserveAspectRatio="xMidYMid meet">

<g transform="translate(0.000000,256.000000) scale(0.100000,-0.100000)"
fill="#000000" stroke="none">
<path d="M820 2144 c-30 -2 -154 -8 -275 -14 -273 -13 -309 -22 -380 -94 -87
-87 -85 -65 -85 -756 0 -691 -2 -669 85 -756 70 -71 107 -80 380 -96 289 -17
1192 -17 1475 0 267 16 305 26 375 96 87 87 85 65 85 756 0 691 2 669 -85 756
-68 69 -109 80 -345 94 -175 11 -1113 22 -1230 14z m565 -675 c173 -100 315
-185 315 -189 0 -7 -623 -370 -635 -370 -3 0 -5 167 -5 370 0 204 2 370 5 370
3 0 147 -82 320 -181z"/>
</g>
</svg>
